<?xml version="1.0" encoding="UTF-8"?>
<svg width="12px" height="7px" viewBox="0 0 12 7" version="1.1" xmlns="http://www.w3.org/2000/svg" xmlns:xlink="http://www.w3.org/1999/xlink">
    <title>btn_90_title_dropdown</title>
    <g id="v8-智慧提醒+90天+设置页面" stroke="none" stroke-width="1" fill="none" fill-rule="evenodd">
        <g id="90日" transform="translate(-318.000000, -47.000000)" fill-rule="nonzero">
            <g id="编组-62" transform="translate(257.000000, 37.000000)">
                <g id="btn_90_title_dropdown" transform="translate(55.000000, 0.000000)">
                    <g id="Group" transform="translate(6.000000, 7.200000)">
                        <rect id="Rectangle" fill="#000000" opacity="0" x="0" y="0" width="12" height="12"></rect>
                        <path d="M6.54263822,8.86501333 C6.38246756,9.025184 6.16510933,9.17392 5.95917156,9.12815289 C5.753248,9.16247111 5.55875911,9.00230044 5.39860267,8.86501333 L0.444945778,3.88847289 C0.193255111,3.63679644 0.193255111,3.22493511 0.444945778,2.97324444 C0.696636444,2.72155378 1.10848356,2.721568 1.36016,2.97324444 L5.97062044,7.70954311 L10.5925156,2.97325867 C10.844192,2.721568 11.2560533,2.721568 11.5077298,2.97325867 C11.7594062,3.22494933 11.7594204,3.63679644 11.5077298,3.88847289 L6.54263822,8.86501333 Z" id="Path" fill="#FFFFFF"></path>
                    </g>
                </g>
            </g>
        </g>
    </g>
</svg>