<?xml version="1.0" encoding="UTF-8"?>
<svg width="36px" height="36px" viewBox="0 0 36 36" version="1.1" xmlns="http://www.w3.org/2000/svg" xmlns:xlink="http://www.w3.org/1999/xlink">
    <title>编组 23</title>
    <g id="v8-智慧提醒+90天+设置页面" stroke="none" stroke-width="1" fill="none" fill-rule="evenodd">
        <g id="90日" transform="translate(-158.000000, -216.000000)" fill="#FFFFFF">
            <g id="编组-23" transform="translate(158.000000, 216.000000)">
                <g id="icon_temperature_cold备份-3" fill-rule="nonzero">
                    <g id="编组-6" transform="translate(12.000000, 7.000000)">
                        <path d="M8.63936718,16.9052382 C8.62071899,16.9051569 8.60210647,16.9035094 8.58370574,16.9003112 C8.4022183,16.8680244 8.27986524,16.6865265 8.31039805,16.4948879 C8.44439528,15.651477 7.98574825,14.8281708 7.22250016,14.5420288 C7.11015067,14.5001599 7.02748996,14.3981839 7.00565552,14.2745141 C6.98382107,14.1508443 7.02613006,14.0242691 7.1166451,13.9424682 C7.20716014,13.8606673 7.33212984,13.8360682 7.44447932,13.8779371 C8.37622251,14.2270529 8.99911702,15.1574544 9,16.2013784 C8.99962758,16.3388984 8.98847948,16.47615 8.96666979,16.6117287 C8.93974468,16.780626 8.8015736,16.9045314 8.63936718,16.9052382 Z" id="路径"></path>
                        <g id="wendujileng">
                            <path d="M6,0 C7.32548339,0 8.4,1.0536507 8.4,2.35339472 L8.4,10.7225325 C10.5192,11.6309429 12,13.7042837 12,16.1165132 C12,19.3660806 9.31392001,22 6,22 C2.68607997,22 0,19.3660806 0,16.1165132 C0,13.703813 1.48079999,11.6304722 3.6,10.7225325 L3.6,2.35339472 C3.6,1.05365071 4.67451659,0 6,0 Z M6,7.73152105 C5.3372583,7.73152105 4.8,8.26877935 4.8,8.93152105 L4.8,11.8013287 C2.86367999,12.3181342 1.44,14.0539981 1.44,16.1165132 C1.4401769,18.5859042 3.48170662,20.5876491 6,20.5876491 C8.51829338,20.5876491 10.5598231,18.5859042 10.56,16.1165132 C10.56,14.0544688 9.13631999,12.3181342 7.2,11.8017994 L7.2,8.93152105 C7.2,8.26877935 6.6627417,7.73152105 6,7.73152105 Z" id="形状结合"></path>
                        </g>
                    </g>
                </g>
                <g id="编组-41备份" opacity="0.42" transform="translate(23.000000, 9.666667)">
                    <rect id="矩形" x="0" y="0" width="7" height="2.66666667" rx="1.33333333"></rect>
                </g>
            </g>
        </g>
    </g>
</svg>