<?xml version="1.0" encoding="UTF-8"?>
<svg width="36px" height="36px" viewBox="0 0 36 36" version="1.1" xmlns="http://www.w3.org/2000/svg" xmlns:xlink="http://www.w3.org/1999/xlink">
    <title>编组 21</title>
    <g id="v8-智慧提醒+90天+设置页面" stroke="none" stroke-width="1" fill="none" fill-rule="evenodd">
        <g id="90日" transform="translate(-156.000000, -105.000000)" fill="#FFFFFF" fill-rule="nonzero">
            <g id="编组-21" transform="translate(156.000000, 105.000000)">
                <g id="编组-6" transform="translate(11.000000, 8.342057)">
                    <path d="M8.63936718,15.6579425 C8.62071899,15.6578625 8.60210647,15.6562406 8.58370574,15.6530921 C8.4022183,15.6213073 8.27986524,15.4426313 8.31039805,15.2539724 C8.44439528,14.4236749 7.98574825,13.6131695 7.22250016,13.3314764 C7.11015067,13.2902585 7.02748996,13.189868 7.00565552,13.068121 C6.98382107,12.946374 7.02613006,12.8217669 7.1166451,12.7412378 C7.20716014,12.6607088 7.33212984,12.6364921 7.44447932,12.67771 C8.37622251,13.0213977 8.99911702,13.9373333 9,14.9650263 C8.99962758,15.1004081 8.98847948,15.2355258 8.96666979,15.3689965 C8.93974468,15.5352678 8.8015736,15.6572466 8.63936718,15.6579425 Z" id="路径"></path>
                    <g id="wendujileng">
                        <path d="M6,0 C7.32548339,0 8.4,1.03726847 8.4,2.31680398 L8.4,10.5558179 C10.5192,11.4501042 12,13.4912085 12,15.8659326 C12,19.0649755 9.31392001,21.6579425 6,21.6579425 C2.68607997,21.6579425 0,19.0649755 0,15.8659326 C0,13.4907451 1.48079999,11.4496409 3.6,10.5558179 L3.6,2.31680398 C3.6,1.03726848 4.67451659,0 6,0 Z M6,9.26917156 C5.3372583,9.26917156 4.8,9.80642986 4.8,10.4691716 L4.8,11.6178408 C2.86367999,12.126611 1.44,13.8354856 1.44,15.8659326 C1.4401769,18.2969293 3.48170662,20.2675509 6,20.2675509 C8.51829338,20.2675509 10.5598231,18.2969293 10.56,15.8659326 C10.56,13.835949 9.13631999,12.126611 7.2,11.6183042 L7.2,10.4691716 C7.2,9.80642986 6.6627417,9.26917156 6,9.26917156 Z" id="形状结合"></path>
                    </g>
                </g>
                <g id="xuehua-2" opacity="0.42" transform="translate(18.000000, 6.000000)">
                    <path d="M11.6944568,8.93994109 L10.4523919,8.26068595 L11.0050801,8.1187971 C11.2243092,8.0686243 11.3976393,7.90878609 11.4576126,7.70148955 C11.5175859,7.49419301 11.4547281,7.27218542 11.2935028,7.12186941 C11.1322775,6.9715534 10.8981539,6.91667487 10.6822501,6.97859187 L8.93101566,7.42765499 L7.24822438,6.50009435 L8.93101566,5.57253372 L10.6822501,6.02159684 L10.8436651,6.02159684 C11.0650086,6.04909996 11.2849212,5.96187907 11.420564,5.79278945 C11.5562067,5.62369982 11.5869722,5.3984302 11.5012715,5.20183746 C11.4155707,5.00524472 11.2264236,4.86719599 11.0050801,4.83969289 L10.4523919,4.72742711 L11.6944568,4.04817197 C11.9878087,3.88276747 12.0869802,3.52298963 11.9168544,3.24135072 C11.7467286,2.95971181 11.3706702,2.86111075 11.0735233,3.02023252 L9.73215645,3.76420558 L9.91849586,3.10853569 C9.98609167,2.90115994 9.92928114,2.6751282 9.77045558,2.51952864 C9.61163001,2.36392908 9.37626351,2.30371838 9.15712346,2.36262799 C8.9379834,2.4215376 8.77021775,2.59011899 8.71994968,2.80192746 L8.2107802,4.57440602 L6.62729082,5.47819273 L6.62729082,3.62910928 L7.91307233,2.40626134 C8.05839548,2.26646822 8.12125269,2.06685838 8.08073755,1.87382237 C8.04022242,1.68078636 7.90164851,1.5196409 7.71110573,1.44398322 C7.55806135,1.38327538 7.38599684,1.38307176 7.23279501,1.44341718 C7.15715495,1.47338684 7.08850565,1.51738263 7.0308284,1.57285302 L6.62709301,1.95682086 L6.62709301,0.592272748 C6.62709301,0.265169542 6.34909158,0 6.00615945,0 C5.66322731,0 5.38522588,0.265169542 5.38522588,0.592272748 L5.38522588,2.05153921 L4.88218859,1.5730417 C4.72787519,1.41560635 4.49604201,1.35062128 4.27696522,1.40339178 C4.05788844,1.45616227 3.88619911,1.61834652 3.82875331,1.82678973 C3.77130751,2.03523294 3.83718612,2.25698499 4.00073591,2.4056953 L5.38542369,3.72307291 L5.38542369,5.49536279 L3.78947212,4.59742523 L3.28030264,2.82513535 C3.22840525,2.61494277 3.06065219,2.44836983 2.84255105,2.39046327 C2.62444991,2.33255671 2.39059429,2.39250124 2.23230482,2.54688852 C2.07401535,2.7012758 2.01639874,2.92561806 2.08195428,3.13230962 L2.27976682,3.76439427 L0.938399982,3.0319308 C0.745704736,2.92328086 0.506661778,2.92178647 0.312490032,3.02801789 C0.118318287,3.13424932 -0.00102310058,3.3318159 0,3.54532612 C0.00103632066,3.75883633 0.122278253,3.95534727 0.317466419,4.05987025 L1.55953136,4.72742711 L1.03789969,4.88101425 C0.81655619,4.90855106 0.627427978,5.04663093 0.541757822,5.24324052 C0.456087666,5.4398501 0.4868909,5.66511973 0.622564246,5.8341925 C0.758237591,6.00326527 0.978169037,6.09045502 1.19951253,6.0629182 L1.36092757,6.0629182 L3.11255761,5.61328903 L4.76449013,6.50009435 L3.08169885,7.42765499 L1.33046444,6.97859187 C1.1214421,6.90402877 0.88653274,6.94241333 0.715448139,7.07908648 C0.544363538,7.21575963 0.46352542,7.42961405 0.503805831,7.63897881 C0.536006871,7.8049566 0.641217628,7.94982149 0.792809952,8.03690911 C0.86788774,8.0800892 0.951673345,8.10767161 1.03869094,8.11785369 L1.59137918,8.25974254 L0.349314238,8.93899768 C0.0559623994,9.10440218 -0.0432091475,9.46418002 0.126916683,9.74581893 C0.297042514,10.0274578 0.673100837,10.1260589 0.970247801,9.96693713 L2.28055807,9.23598312 L2.09421865,9.89165302 C2.04477115,10.0445797 2.06244051,10.210095 2.14318903,10.3503763 C2.22393756,10.4906576 2.36086466,10.5937168 2.52268062,10.6360034 C2.57637703,10.641853 2.63059705,10.641853 2.68429346,10.6360034 C2.97278319,10.6454962 3.23008368,10.4641059 3.30522702,10.1982612 L3.8143965,8.42578268 L5.38542369,7.52199598 L5.38542369,9.37107942 L4.09964218,10.5939274 C3.94038867,10.7435342 3.87779526,10.9632756 3.93578063,11.1691824 C3.993766,11.3750891 4.16336869,11.5353389 4.37977881,11.5886958 C4.59618893,11.6420527 4.82596098,11.5802707 4.98129268,11.4269583 L5.38502807,11.0429905 L5.38502807,12.4077273 C5.38502808,12.7348305 5.66302951,13 6.00596163,13 C6.34889376,13 6.62689518,12.7348305 6.6268952,12.4077273 L6.6268952,10.9486495 L7.12993249,11.427147 C7.28520228,11.5804806 7.51492195,11.6423265 7.73132774,11.5890565 C7.94773354,11.5357865 8.11738903,11.3756313 8.17547783,11.1697778 C8.23356662,10.9639242 8.17111354,10.7441783 8.0119786,10.5944934 L6.62729082,9.2771158 L6.62729082,7.50444856 L8.22324239,8.38465001 L8.73241187,10.1569399 C8.80743995,10.4228343 9.06484388,10.6042192 9.35334544,10.5944934 C9.40697568,10.6003434 9.46113023,10.6003434 9.51476047,10.5944934 C9.67481414,10.5547775 9.81152881,10.4555808 9.89437605,10.319054 C9.97722328,10.1825271 9.99930294,10.0200411 9.95568462,9.86787909 L9.73215645,9.23598312 L11.0610611,9.96844659 C11.2537563,10.0770965 11.4927993,10.0785909 11.686971,9.97235949 C11.8811428,9.86612807 12.0004842,9.66856149 11.9994545,9.45505127 C11.9984248,9.24154106 11.8771828,9.04503012 11.6819947,8.94050714 L11.6944568,8.93994109 Z" id="路径"></path>
                </g>
            </g>
        </g>
    </g>
</svg>