<?xml version="1.0" encoding="UTF-8"?>
<svg width="36px" height="36px" viewBox="0 0 36 36" version="1.1" xmlns="http://www.w3.org/2000/svg" xmlns:xlink="http://www.w3.org/1999/xlink">
    <title>编组 9</title>
    <g id="v8-智慧提醒+90天+设置页面" stroke="none" stroke-width="1" fill="none" fill-rule="evenodd">
        <g id="90日" transform="translate(-275.000000, -106.000000)">
            <g id="编组-9" transform="translate(275.000000, 106.000000)">
                <g id="icon_precipitation_trend"></g>
                <g id="umbrellasan" transform="translate(10.000000, 10.000000)" stroke="#FFFFFF">
                    <path d="M8.29617339,8.29617339 L8.29617339,14.2213004 C8.29617339,14.7157524 8.12361298,15.1355387 7.77849217,15.4806595 C7.43171212,15.8274396 7.01192575,16 6.51913305,16 C6.02468112,16 5.60489474,15.8274396 5.25977393,15.4823188 C4.91299388,15.1355387 4.74043348,14.7174116 4.74043348,14.2229597 C4.74043348,14.0255107 4.83998756,13.9259567 5.03743648,13.9259567 C5.23488541,13.9259567 5.33443949,14.0255107 5.33443949,14.2229597 C5.33443949,14.5697397 5.44560821,14.8518096 5.66794566,15.074147 C5.88862387,15.2964845 6.172353,15.4076532 6.51913305,15.4076532 C6.86425386,15.4076532 7.14798299,15.2964845 7.37032044,15.074147 C7.59265789,14.8518096 7.70382661,14.5680805 7.70382661,14.2229597 L7.70382661,8.29617339 L8.29617339,8.29617339 Z" id="形状" stroke-width="0.5" fill="#FFFFFF" fill-rule="nonzero"></path>
                    <path d="M8,0 C12.418278,-8.11624501e-16 16,3.581722 16,8 L16,8.42105263 L16,8.42105263 L0,8.42105263 L0,8 C-5.41083001e-16,3.581722 3.581722,8.11624501e-16 8,0 Z" id="矩形"></path>
                </g>
            </g>
        </g>
    </g>
</svg>