<?xml version="1.0" encoding="UTF-8"?>
<svg width="36px" height="36px" viewBox="0 0 36 36" version="1.1" xmlns="http://www.w3.org/2000/svg" xmlns:xlink="http://www.w3.org/1999/xlink">
    <title>编组 22</title>
    <g id="v8-智慧提醒+90天+设置页面" stroke="none" stroke-width="1" fill="none" fill-rule="evenodd">
        <g id="90日" transform="translate(-45.000000, -216.000000)" fill="#FFFFFF">
            <g id="编组-22" transform="translate(45.000000, 216.000000)">
                <g id="icon_temperature_cold备份-4" fill-rule="nonzero">
                    <g id="编组-6" transform="translate(11.000000, 7.342057)">
                        <path d="M8.63936718,16.6579425 C8.62071899,16.6578625 8.60210647,16.6562406 8.58370574,16.6530921 C8.4022183,16.6213073 8.27986524,16.4426313 8.31039805,16.2539724 C8.44439528,15.4236749 7.98574825,14.6131695 7.22250016,14.3314764 C7.11015067,14.2902585 7.02748996,14.189868 7.00565552,14.068121 C6.98382107,13.946374 7.02613006,13.8217669 7.1166451,13.7412378 C7.20716014,13.6607088 7.33212984,13.6364921 7.44447932,13.67771 C8.37622251,14.0213977 8.99911702,14.9373333 9,15.9650263 C8.99962758,16.1004081 8.98847948,16.2355258 8.96666979,16.3689965 C8.93974468,16.5352678 8.8015736,16.6572466 8.63936718,16.6579425 Z" id="路径"></path>
                        <g id="wendujileng">
                            <path d="M6,0 C7.32548339,0 8.4,1.03726847 8.4,2.31680398 L8.4,10.5558179 C10.5192,11.4501042 12,13.4912085 12,15.8659326 C12,19.0649755 9.31392001,21.6579425 6,21.6579425 C2.68607997,21.6579425 0,19.0649755 0,15.8659326 C0,13.4907451 1.48079999,11.4496409 3.6,10.5558179 L3.6,2.31680398 C3.6,1.03726848 4.67451659,0 6,0 Z M6,2.03653677 C5.3372583,2.03653677 4.8,2.57379507 4.8,3.23653677 L4.8,11.6178408 C2.86367999,12.126611 1.44,13.8354856 1.44,15.8659326 C1.4401769,18.2969293 3.48170662,20.2675509 6,20.2675509 C8.51829338,20.2675509 10.5598231,18.2969293 10.56,15.8659326 C10.56,13.835949 9.13631999,12.126611 7.2,11.6183042 L7.2,3.23653677 C7.2,2.57379507 6.6627417,2.03653677 6,2.03653677 Z" id="形状结合"></path>
                        </g>
                    </g>
                </g>
                <g id="编组-41" opacity="0.42" transform="translate(21.000000, 7.500000)">
                    <rect id="矩形" x="0" y="2.16666667" width="7" height="2.66666667" rx="1.33333333"></rect>
                    <rect id="矩形备份" transform="translate(3.500000, 3.500000) rotate(-90.000000) translate(-3.500000, -3.500000) " x="5.68434189e-13" y="2.16666667" width="7" height="2.66666667" rx="1.33333333"></rect>
                </g>
            </g>
        </g>
    </g>
</svg>