<?xml version="1.0" encoding="UTF-8"?>
<svg width="36px" height="36px" viewBox="0 0 36 36" version="1.1" xmlns="http://www.w3.org/2000/svg" xmlns:xlink="http://www.w3.org/1999/xlink">
    <title>编组 20</title>
    <g id="v8-智慧提醒+90天+设置页面" stroke="none" stroke-width="1" fill="none" fill-rule="evenodd">
        <g id="90日" transform="translate(-44.000000, -105.000000)" fill="#FFFFFF">
            <g id="编组-20" transform="translate(44.000000, 105.000000)">
                <g id="编组-6" transform="translate(11.000000, 8.342057)" fill-rule="nonzero">
                    <path d="M8.63936718,15.6579425 C8.62071899,15.6578625 8.60210647,15.6562406 8.58370574,15.6530921 C8.4022183,15.6213073 8.27986524,15.4426313 8.31039805,15.2539724 C8.44439528,14.4236749 7.98574825,13.6131695 7.22250016,13.3314764 C7.11015067,13.2902585 7.02748996,13.189868 7.00565552,13.068121 C6.98382107,12.946374 7.02613006,12.8217669 7.1166451,12.7412378 C7.20716014,12.6607088 7.33212984,12.6364921 7.44447932,12.67771 C8.37622251,13.0213977 8.99911702,13.9373333 9,14.9650263 C8.99962758,15.1004081 8.98847948,15.2355258 8.96666979,15.3689965 C8.93974468,15.5352678 8.8015736,15.6572466 8.63936718,15.6579425 Z" id="路径"></path>
                    <g id="wendujileng">
                        <path d="M6,0 C7.32548339,0 8.4,1.03726847 8.4,2.31680398 L8.4,10.5558179 C10.5192,11.4501042 12,13.4912085 12,15.8659326 C12,19.0649755 9.31392001,21.6579425 6,21.6579425 C2.68607997,21.6579425 0,19.0649755 0,15.8659326 C0,13.4907451 1.48079999,11.4496409 3.6,10.5558179 L3.6,2.31680398 C3.6,1.03726848 4.67451659,0 6,0 Z M6,2.03653677 C5.3372583,2.03653677 4.8,2.57379507 4.8,3.23653677 L4.8,11.6178408 C2.86367999,12.126611 1.44,13.8354856 1.44,15.8659326 C1.4401769,18.2969293 3.48170662,20.2675509 6,20.2675509 C8.51829338,20.2675509 10.5598231,18.2969293 10.56,15.8659326 C10.56,13.835949 9.13631999,12.126611 7.2,11.6183042 L7.2,3.23653677 C7.2,2.57379507 6.6627417,2.03653677 6,2.03653677 Z" id="形状结合"></path>
                    </g>
                </g>
                <g id="编组-61" opacity="0.422023228" transform="translate(18.000000, 6.000000)">
                    <path d="M6.5,0.000850501559 C6.94229288,-0.0373394899 7.05205222,1.22220353 7.89161952,1.44049096 C8.73118682,1.65877838 9.45124096,0.636080466 9.75626914,0.856847129 C10.0612973,1.07761379 9.63952181,2.219737 10.2376317,2.83447159 C10.8357417,3.44920617 11.8871619,2.87565307 12.1336692,3.26542739 C12.3801765,3.65520172 11.3406641,4.22644476 11.5516877,5.13496949 C11.7627112,6.04349422 13,6.04349422 13,6.50360677 C13,6.96371932 11.7868823,6.99061753 11.5516877,7.83995168 C11.316493,8.68928582 12.2765018,9.35796581 12.1336692,9.73544243 C11.9908366,10.1129191 10.7840724,9.59579661 10.1677374,10.2172747 C9.5514024,10.8387527 10.1325687,11.8597653 9.75626914,12.1169923 C9.37996957,12.3742192 8.6513495,11.3331631 7.84097884,11.5491245 C7.03060818,11.7650858 6.8382177,13.0071423 6.5,12.9999691 C6.1617823,12.9927334 6.02328427,11.7918712 5.1670182,11.5491245 C4.31075212,11.3063777 3.58623775,12.2826043 3.25722405,12.1169923 C2.92821034,11.9513802 3.37049662,10.7562987 2.76388421,10.1427241 C2.15727179,9.52914937 1.08232021,10.1427241 0.855230685,9.73544243 C0.628141155,9.32816081 1.74386914,8.77807317 1.41648792,7.79110424 C1.08910671,6.80413532 0,6.96371932 0,6.50004563 C0,6.03637193 1.26975027,6.04349422 1.46917801,5.06011461 C1.66860575,4.07673501 0.628141155,3.65520172 0.855230685,3.26542739 C1.08232021,2.87565307 1.99494115,3.40848569 2.71260676,2.83447159 C3.43027238,2.26045748 2.88856608,0.978592081 3.25722405,0.856847129 C3.62588201,0.735102178 4.22497671,1.67163066 5.1670182,1.44049096 C6.10905969,1.20935126 6.05770712,0.039040493 6.5,0.000850501559 Z M6.47460938,2.8697897 C4.46934111,2.8697897 2.84375,4.49526669 2.84375,6.50039417 C2.84375,8.50552165 4.46934111,10.1309986 6.47460938,10.1309986 C8.47987764,10.1309986 10.1054688,8.50552165 10.1054688,6.50039417 C10.1054688,4.49526669 8.47987764,2.8697897 6.47460938,2.8697897 Z" id="形状结合"></path>
                    <path d="M6.53250152,3.71427024 C8.07100903,3.71427024 9.3182158,4.96147701 9.3182158,6.49998453 C9.3182158,8.03849204 8.07100903,9.28569881 6.53250152,9.28569881 C4.993994,9.28569881 3.74678723,8.03849204 3.74678723,6.49998453 C3.74678723,4.96147701 4.993994,3.71427024 6.53250152,3.71427024 Z M6.99857031,4.24143937 C6.82568523,4.15719306 6.61724812,4.2290551 6.533013,4.40194774 C6.44877788,4.57484038 6.52064287,4.78329268 6.69352796,4.86753899 C7.02274824,5.02796691 7.28850812,5.27294567 7.49535402,5.60892262 C7.71347635,5.96321572 7.87479753,6.39630206 7.97748064,6.90960724 C8.01520685,7.09819771 8.19866239,7.22050086 8.38724007,7.18277899 C8.57581775,7.14505711 8.69810703,6.9615947 8.66038082,6.77300424 C8.54225671,6.18251062 8.35220573,5.67229566 8.08839097,5.24378497 C7.81329978,4.79695813 7.44851075,4.46069381 6.99857031,4.24143937 Z" id="形状结合"></path>
                </g>
            </g>
        </g>
    </g>
</svg>