<?xml version="1.0" encoding="UTF-8"?>
<svg width="36px" height="36px" viewBox="0 0 36 36" version="1.1" xmlns="http://www.w3.org/2000/svg" xmlns:xlink="http://www.w3.org/1999/xlink">
    <title>编组 8</title>
    <g id="v8-智慧提醒+90天+设置页面" stroke="none" stroke-width="1" fill="none" fill-rule="evenodd">
        <g id="90日" transform="translate(-273.000000, -216.000000)" fill="#FFFFFF" fill-rule="nonzero">
            <g id="编组-8" transform="translate(273.000000, 216.000000)">
                <g id="xue" transform="translate(9.000000, 9.000000)">
                    <path d="M17.7759839,12.964359 L14.7054984,11.4193926 L17.126807,10.8534323 C17.3667202,10.7971878 17.5078456,10.5827556 17.4433312,10.3735963 C17.3788167,10.1644371 17.1328553,10.0414022 16.8929421,10.0976467 L13.6047202,10.8657358 L9.89715434,8.99912118 L13.6047202,7.13250659 L16.8929421,7.90059565 C16.9312475,7.90938385 16.9715691,7.91465678 17.0098746,7.91465678 C17.2074501,7.91465678 17.3888971,7.79865247 17.4433312,7.62464603 C17.5078456,7.41548677 17.3647042,7.20105458 17.126807,7.14481008 L14.7054984,6.57884972 L17.7759839,5.03388341 C17.9896881,4.92666732 18.0642829,4.68587051 17.9392861,4.49956058 C17.8163054,4.31325065 17.5401028,4.24821793 17.3263987,4.35719167 L14.2559132,5.90215799 L14.90509,3.79123133 C14.9696045,3.58207207 14.826463,3.36763988 14.5885659,3.31139537 C14.3486527,3.25515085 14.1026913,3.37994336 14.0381768,3.58734498 L13.1571511,6.45405722 L9.4495852,8.32067181 L9.4495852,4.58920027 L11.8567813,2.49057708 C12.03218,2.33766234 12.03218,2.08983496 11.8567813,1.93692022 C11.6813826,1.78400547 11.3971157,1.78400547 11.221717,1.93692022 L9.4495852,3.48188653 L9.4495852,0.391953902 C9.4495852,0.175764094 9.24596142,0 9,0 C8.75403858,0 8.5504148,0.175764094 8.5504148,0.391953902 L8.5504148,3.48364417 L6.77828297,1.93867787 C6.60288427,1.78576312 6.31861738,1.78576312 6.14321867,1.93867787 C5.96781997,2.09159262 5.96781997,2.33941999 6.14321867,2.49233474 L8.5504148,4.59095792 L8.5504148,8.3241871 L4.8428489,6.45581486 L3.96182318,3.58910263 C3.8973087,3.37994337 3.6513473,3.25690852 3.41143412,3.31315302 C3.17152093,3.36939754 3.03039554,3.58382971 3.09491,3.79298897 L3.74408683,5.90391563 L0.673601322,4.35719167 C0.459897141,4.24997559 0.183694575,4.31325065 0.0607138753,4.49956058 C-0.0622668244,4.68587051 0.0103119439,4.92666731 0.224016124,5.03388341 L3.29450163,6.57884972 L0.873192954,7.14481008 C0.633279772,7.20105458 0.492154381,7.41548677 0.556668839,7.62464603 C0.611102915,7.79865247 0.792549876,7.91465678 0.990125437,7.91465678 C1.02843089,7.91465678 1.06673637,7.9111415 1.10705792,7.90059565 L4.39527977,7.13250659 L8.10284566,8.99912118 L4.39527977,10.8657358 L1.10705792,10.0976467 C0.867144737,10.0414022 0.621183318,10.1661947 0.556668839,10.3735963 C0.49215436,10.5827556 0.635295845,10.7971878 0.873192954,10.8534323 L3.29450163,11.4193926 L0.224016124,12.964359 C0.0103119439,13.071575 -0.0642829169,13.3123718 0.0607138753,13.4986818 C0.185710668,13.6849917 0.459897161,13.7500244 0.673601322,13.6410507 L3.74408683,12.0960844 L3.09491,14.207011 C3.03039552,14.4161703 3.17353701,14.6306025 3.41143412,14.686847 C3.44973957,14.6956352 3.49006112,14.7009081 3.52836658,14.7009081 C3.72594214,14.7009081 3.90738908,14.5849038 3.96182318,14.4108974 L4.8428489,11.5441851 L8.5504148,9.67757055 L8.5504148,13.4107997 L6.14321867,15.5076653 C5.96781997,15.66058 5.96781997,15.9084074 6.14321867,16.0613221 C6.31861738,16.2142369 6.60288427,16.2142369 6.77828297,16.0613221 L8.5504148,14.5163558 L8.5504148,17.6080461 C8.5504148,17.8224783 8.75202253,18 9,18 C9.24797747,18 9.4495852,17.8242359 9.4495852,17.6080461 L9.4495852,14.5163558 L11.221717,16.0613221 C11.3084083,16.1369007 11.4233248,16.1755688 11.5382411,16.1755688 C11.6531575,16.1755688 11.7680739,16.1369007 11.8547653,16.0613221 C12.030164,15.9084074 12.030164,15.66058 11.8547653,15.5076653 L9.4495852,13.4090421 L9.4495852,9.67757055 L13.1571511,11.5441851 L14.0381768,14.4108974 C14.0926109,14.5849038 14.2740579,14.7009081 14.4716334,14.7009081 C14.5099389,14.7009081 14.5482444,14.6973928 14.5885659,14.686847 C14.8284791,14.6306025 14.9696045,14.4161703 14.90509,14.207011 L14.2559132,12.0960844 L17.3263987,13.6410507 C17.5401029,13.7482668 17.8163054,13.6849917 17.9392861,13.4986818 C18.0622668,13.3123718 17.9896881,13.071575 17.7759839,12.964359 Z" id="路径"></path>
                </g>
            </g>
        </g>
    </g>
</svg>